<svg xmlns="http://www.w3.org/2000/svg" xmlns:xlink="http://www.w3.org/1999/xlink" viewBox="0 0 64 64"><defs><style>.cls-1{isolation:isolate;}.cls-2{fill:url(#linear-gradient);}.cls-3{fill:url(#linear-gradient-2);}.cls-4{fill:url(#linear-gradient-3);}.cls-5{fill:url(#linear-gradient-4);}.cls-6{fill:url(#linear-gradient-5);}.cls-7{fill:url(#linear-gradient-6);}.cls-8{fill:url(#linear-gradient-7);}.cls-9{fill:url(#linear-gradient-8);}.cls-10{fill:url(#linear-gradient-9);}.cls-11{fill:url(#linear-gradient-10);}.cls-12{fill:url(#linear-gradient-11);}.cls-13{fill:url(#linear-gradient-13);}.cls-14{fill:url(#linear-gradient-15);}.cls-15{fill:url(#linear-gradient-17);}.cls-16{fill:url(#linear-gradient-19);}.cls-17{fill:url(#linear-gradient-21);}.cls-18{fill:url(#linear-gradient-23);}.cls-19{fill:url(#linear-gradient-24);}.cls-20{fill:url(#linear-gradient-25);}.cls-21{fill:url(#linear-gradient-26);}.cls-22{fill:url(#linear-gradient-27);}.cls-23{fill:url(#linear-gradient-28);}.cls-24{fill:url(#linear-gradient-29);}.cls-25{fill:url(#linear-gradient-30);}.cls-26{fill:url(#linear-gradient-31);}.cls-27{fill:url(#linear-gradient-32);}.cls-28{fill:url(#linear-gradient-33);}.cls-29{fill:url(#linear-gradient-34);}.cls-30{fill:#2a384c;}.cls-31{fill:url(#linear-gradient-35);}.cls-32{fill:url(#linear-gradient-36);}.cls-33{fill:url(#linear-gradient-37);}.cls-34{fill:url(#linear-gradient-38);}.cls-35{fill:#144799;}.cls-36{fill:#3d6fd3;}.cls-37{fill:url(#linear-gradient-39);}.cls-38,.cls-40,.cls-42,.cls-44,.cls-45,.cls-47,.cls-48,.cls-49,.cls-50{mix-blend-mode:color-burn;}.cls-38{fill:url(#linear-gradient-40);}.cls-39{fill:url(#linear-gradient-41);}.cls-40{fill:url(#linear-gradient-42);}.cls-41{fill:url(#linear-gradient-43);}.cls-42{fill:url(#linear-gradient-44);}.cls-43{fill:url(#linear-gradient-45);}.cls-44{fill:url(#linear-gradient-46);}.cls-45{fill:url(#linear-gradient-47);}.cls-46{fill:url(#linear-gradient-48);}.cls-47{fill:url(#linear-gradient-49);}.cls-48{fill:url(#linear-gradient-50);}.cls-49{fill:url(#linear-gradient-51);}.cls-50{fill:url(#linear-gradient-52);}.cls-51{fill:url(#linear-gradient-53);}.cls-52{fill:url(#linear-gradient-54);}.cls-53{fill:url(#linear-gradient-55);}.cls-54{fill:url(#linear-gradient-56);}.cls-55{fill:url(#linear-gradient-57);}.cls-56{fill:url(#linear-gradient-58);}.cls-57{fill:url(#linear-gradient-59);}.cls-58{fill:url(#linear-gradient-60);}.cls-59{fill:url(#linear-gradient-61);}.cls-60{fill:url(#linear-gradient-62);}.cls-61{fill:url(#linear-gradient-63);}.cls-62{fill:url(#linear-gradient-64);}.cls-63{fill:#2fbca4;}.cls-64{fill:url(#linear-gradient-65);}.cls-65{fill:url(#linear-gradient-66);}.cls-66{fill:url(#linear-gradient-67);}.cls-67{fill:url(#linear-gradient-68);}.cls-68{fill:url(#linear-gradient-69);}.cls-69{fill:url(#linear-gradient-70);}.cls-70{fill:url(#linear-gradient-71);}.cls-71{fill:url(#linear-gradient-72);}.cls-72{fill:url(#linear-gradient-73);}.cls-73{fill:url(#linear-gradient-74);}.cls-74{fill:url(#linear-gradient-75);}.cls-75{fill:url(#linear-gradient-76);}.cls-76{fill:url(#linear-gradient-77);}.cls-77{fill:url(#linear-gradient-78);}.cls-78{fill:url(#linear-gradient-79);}.cls-79{fill:url(#linear-gradient-80);}.cls-80{fill:url(#linear-gradient-81);}.cls-81{fill:url(#linear-gradient-82);}.cls-82{fill:url(#linear-gradient-83);}.cls-83{fill:url(#linear-gradient-84);}.cls-84{fill:#39ce9c;}</style><linearGradient id="linear-gradient" x1="32" y1="97.25" x2="32" y2="9.14" gradientUnits="userSpaceOnUse"><stop offset="0.02" stop-color="#97efe7"/><stop offset="0.52" stop-color="#3db6d3"/><stop offset="1" stop-color="#3d6fd3"/></linearGradient><linearGradient id="linear-gradient-2" x1="12.78" y1="61.97" x2="37.61" y2="20.3" xlink:href="#linear-gradient"/><linearGradient id="linear-gradient-3" x1="-1.79" y1="53.29" x2="23.04" y2="11.62" xlink:href="#linear-gradient"/><linearGradient id="linear-gradient-4" x1="8.9" y1="38" x2="8.9" y2="23.9" gradientUnits="userSpaceOnUse"><stop offset="0" stop-color="#fff"/><stop offset="0.84" stop-color="#cddfec"/></linearGradient><linearGradient id="linear-gradient-5" x1="0.27" y1="54.52" x2="25.1" y2="12.85" xlink:href="#linear-gradient"/><linearGradient id="linear-gradient-6" x1="11.69" y1="38" x2="11.69" y2="23.9" xlink:href="#linear-gradient-4"/><linearGradient id="linear-gradient-7" x1="-0.63" y1="53.98" x2="24.2" y2="12.32" xlink:href="#linear-gradient"/><linearGradient id="linear-gradient-8" x1="8.9" y1="38" x2="8.9" y2="23.9" xlink:href="#linear-gradient-4"/><linearGradient id="linear-gradient-9" x1="1.43" y1="55.21" x2="26.26" y2="13.54" xlink:href="#linear-gradient"/><linearGradient id="linear-gradient-10" x1="11.69" y1="38" x2="11.69" y2="23.9" xlink:href="#linear-gradient-4"/><linearGradient id="linear-gradient-11" x1="0.53" y1="54.68" x2="25.37" y2="13.01" xlink:href="#linear-gradient"/><linearGradient id="linear-gradient-13" x1="2.59" y1="55.9" x2="27.43" y2="14.24" xlink:href="#linear-gradient"/><linearGradient id="linear-gradient-15" x1="1.7" y1="55.37" x2="26.53" y2="13.7" xlink:href="#linear-gradient"/><linearGradient id="linear-gradient-17" x1="3.76" y1="56.6" x2="28.59" y2="14.93" xlink:href="#linear-gradient"/><linearGradient id="linear-gradient-19" x1="2.86" y1="56.06" x2="27.69" y2="14.4" xlink:href="#linear-gradient"/><linearGradient id="linear-gradient-21" x1="4.92" y1="57.29" x2="29.75" y2="15.62" xlink:href="#linear-gradient"/><linearGradient id="linear-gradient-23" x1="18.08" y1="11.92" x2="18.92" y2="0.75" xlink:href="#linear-gradient"/><linearGradient id="linear-gradient-24" x1="18.31" y1="5.49" x2="17.9" y2="-5.84" xlink:href="#linear-gradient"/><linearGradient id="linear-gradient-25" x1="9.17" y1="22.54" x2="9.17" y2="7.66" xlink:href="#linear-gradient"/><linearGradient id="linear-gradient-26" x1="14.09" y1="19.25" x2="14.09" y2="1.19" xlink:href="#linear-gradient"/><linearGradient id="linear-gradient-27" x1="-1250.04" y1="15.88" x2="-1250.04" y2="0.99" gradientTransform="matrix(-1, 0, 0, 1, -1195.22, 0)" xlink:href="#linear-gradient"/><linearGradient id="linear-gradient-28" x1="-1245.13" y1="12.58" x2="-1245.13" y2="-5.48" gradientTransform="matrix(-1, 0, 0, 1, -1195.22, 0)" xlink:href="#linear-gradient"/><linearGradient id="linear-gradient-29" x1="-1228.9" y1="11.33" x2="-1228.9" y2="4.31" gradientTransform="matrix(-1, 0, 0, 1, -1195.22, 0)" xlink:href="#linear-gradient"/><linearGradient id="linear-gradient-30" x1="-1226.58" y1="9.78" x2="-1226.58" y2="1.26" gradientTransform="matrix(-1, 0, 0, 1, -1195.22, 0)" xlink:href="#linear-gradient"/><linearGradient id="linear-gradient-31" x1="32.31" y1="7.26" x2="30.94" y2="17.67" gradientUnits="userSpaceOnUse"><stop offset="0" stop-color="#3db6d3"/><stop offset="0.5" stop-color="#3d6fd3"/><stop offset="1" stop-color="#252784"/></linearGradient><linearGradient id="linear-gradient-32" x1="32.25" y1="30.84" x2="34.25" y2="17.78" xlink:href="#linear-gradient-31"/><linearGradient id="linear-gradient-33" x1="30.65" y1="32.65" x2="35.4" y2="16.46" xlink:href="#linear-gradient-31"/><linearGradient id="linear-gradient-34" x1="26.62" y1="32.14" x2="37.74" y2="13.89" xlink:href="#linear-gradient-31"/><linearGradient id="linear-gradient-35" x1="30.83" y1="18.69" x2="41.2" y2="24.88" gradientUnits="userSpaceOnUse"><stop offset="0" stop-color="#f9d5c5"/><stop offset="1" stop-color="#f78e6b"/></linearGradient><linearGradient id="linear-gradient-36" x1="28.95" y1="16.27" x2="36.22" y2="30.19" gradientUnits="userSpaceOnUse"><stop offset="0" stop-color="#182ebd"/><stop offset="0.58" stop-color="#0d1226"/></linearGradient><linearGradient id="linear-gradient-37" x1="35.51" y1="14.21" x2="42.26" y2="27.12" xlink:href="#linear-gradient-36"/><linearGradient id="linear-gradient-38" x1="42.01" y1="97.25" x2="42.01" y2="9.14" xlink:href="#linear-gradient"/><linearGradient id="linear-gradient-39" x1="41.19" y1="97.25" x2="41.19" y2="9.14" xlink:href="#linear-gradient"/><linearGradient id="linear-gradient-40" x1="19.36" y1="76.8" x2="57.45" y2="38.61" gradientUnits="userSpaceOnUse"><stop offset="0" stop-color="#fff" stop-opacity="0"/><stop offset="1"/></linearGradient><linearGradient id="linear-gradient-41" x1="41.21" y1="97.25" x2="41.21" y2="9.14" xlink:href="#linear-gradient"/><linearGradient id="linear-gradient-42" x1="19.67" y1="77.13" x2="57.78" y2="38.92" xlink:href="#linear-gradient-40"/><linearGradient id="linear-gradient-43" x1="28.07" y1="97.25" x2="28.07" y2="9.13" xlink:href="#linear-gradient"/><linearGradient id="linear-gradient-44" x1="14.12" y1="71.59" x2="52.22" y2="33.38" xlink:href="#linear-gradient-40"/><linearGradient id="linear-gradient-45" x1="41.12" y1="97.25" x2="41.12" y2="9.14" xlink:href="#linear-gradient"/><linearGradient id="linear-gradient-46" x1="21.66" y1="76.8" x2="58.1" y2="40.27" xlink:href="#linear-gradient-40"/><linearGradient id="linear-gradient-47" x1="20.51" y1="77.96" x2="58.61" y2="39.76" xlink:href="#linear-gradient-40"/><linearGradient id="linear-gradient-48" x1="41.21" y1="97.25" x2="41.21" y2="9.14" xlink:href="#linear-gradient"/><linearGradient id="linear-gradient-49" x1="21.03" y1="76.17" x2="57.46" y2="39.64" xlink:href="#linear-gradient-40"/><linearGradient id="linear-gradient-50" x1="19.88" y1="77.33" x2="57.98" y2="39.13" xlink:href="#linear-gradient-40"/><linearGradient id="linear-gradient-51" x1="17.06" y1="74.52" x2="55.16" y2="36.32" xlink:href="#linear-gradient-40"/><linearGradient id="linear-gradient-52" x1="19.9" y1="77.36" x2="58" y2="39.16" xlink:href="#linear-gradient-40"/><linearGradient id="linear-gradient-53" x1="29.69" y1="42.66" x2="59.38" y2="45.1" gradientUnits="userSpaceOnUse"><stop offset="0" stop-color="#2a384c"/><stop offset="0.37" stop-color="#061b2b"/></linearGradient><linearGradient id="linear-gradient-54" x1="27.14" y1="45.86" x2="55.89" y2="45.61" xlink:href="#linear-gradient-53"/><linearGradient id="linear-gradient-55" x1="31.47" y1="61.59" x2="31.82" y2="35.02" gradientUnits="userSpaceOnUse"><stop offset="0" stop-color="#7ff1a4"/><stop offset="0.52" stop-color="#2fbca4"/><stop offset="1" stop-color="#2f7da4"/></linearGradient><linearGradient id="linear-gradient-56" x1="32.41" y1="55.72" x2="29.57" y2="31.49" xlink:href="#linear-gradient-40"/><linearGradient id="linear-gradient-57" x1="33.07" y1="8.72" x2="28.4" y2="28.33" xlink:href="#linear-gradient-35"/><linearGradient id="linear-gradient-58" x1="24.45" y1="29.53" x2="50.03" y2="44.28" xlink:href="#linear-gradient-53"/><linearGradient id="linear-gradient-59" x1="31.66" y1="34.01" x2="38.2" y2="34.01" xlink:href="#linear-gradient-55"/><linearGradient id="linear-gradient-60" x1="43.54" y1="41.56" x2="43.54" y2="30.1" gradientTransform="translate(87.07 62.68) rotate(180)" xlink:href="#linear-gradient-31"/><linearGradient id="linear-gradient-61" x1="-15129.07" y1="38.06" x2="-15129.07" y2="26.52" gradientTransform="matrix(-1, 0, 0, 1, -15082.14, 0)" xlink:href="#linear-gradient-31"/><linearGradient id="linear-gradient-62" x1="-15124.78" y1="38.06" x2="-15124.78" y2="26.52" gradientTransform="matrix(-1, 0, 0, 1, -15082.14, 0)" xlink:href="#linear-gradient-31"/><linearGradient id="linear-gradient-63" x1="38.47" y1="38.6" x2="38.47" y2="27.04" xlink:href="#linear-gradient-31"/><linearGradient id="linear-gradient-64" x1="38.39" y1="40.38" x2="38.39" y2="23.15" xlink:href="#linear-gradient-31"/><linearGradient id="linear-gradient-65" x1="-15123.99" y1="52.51" x2="-15144.12" y2="44.68" gradientTransform="matrix(-1, 0, 0, 1, -15082.14, 0)" gradientUnits="userSpaceOnUse"><stop offset="0" stop-color="#abcf9c"/><stop offset="0.17" stop-color="#84cf9c"/><stop offset="0.46" stop-color="#39ce9c"/><stop offset="1" stop-color="#007a75"/></linearGradient><linearGradient id="linear-gradient-66" x1="65.23" y1="56.53" x2="50.39" y2="47.36" xlink:href="#linear-gradient-55"/><linearGradient id="linear-gradient-67" x1="27.48" y1="51.68" x2="73.14" y2="28.52" xlink:href="#linear-gradient-55"/><linearGradient id="linear-gradient-68" x1="-15120.46" y1="58.29" x2="-15120.46" y2="47.91" gradientTransform="matrix(-1, 0, 0, 1, -15082.14, 0)" xlink:href="#linear-gradient-55"/><linearGradient id="linear-gradient-69" x1="45.09" y1="62.64" x2="47.42" y2="29.56" xlink:href="#linear-gradient-55"/><linearGradient id="linear-gradient-70" x1="48.45" y1="62.35" x2="48.87" y2="48.51" xlink:href="#linear-gradient-55"/><linearGradient id="linear-gradient-71" x1="-15129.48" y1="44.78" x2="-15129.48" y2="32.85" xlink:href="#linear-gradient-65"/><linearGradient id="linear-gradient-72" x1="-15122.17" y1="40.08" x2="-15128.98" y2="33.2" xlink:href="#linear-gradient-65"/><linearGradient id="linear-gradient-73" x1="20.37" y1="56.25" x2="55.31" y2="40.38" xlink:href="#linear-gradient-55"/><linearGradient id="linear-gradient-74" x1="36.07" y1="66.65" x2="39.82" y2="38.9" xlink:href="#linear-gradient-55"/><linearGradient id="linear-gradient-75" x1="35.65" y1="48.19" x2="35.65" y2="39.59" gradientTransform="translate(71.31 95.02) rotate(-180)" xlink:href="#linear-gradient-4"/><linearGradient id="linear-gradient-76" x1="34.27" y1="48.19" x2="34.27" y2="39.59" gradientTransform="translate(68.54 95.64) rotate(-180)" xlink:href="#linear-gradient-4"/><linearGradient id="linear-gradient-77" x1="49.15" y1="65.98" x2="49.15" y2="46.37" gradientTransform="translate(98.3 96.72) rotate(-180)" xlink:href="#linear-gradient-31"/><linearGradient id="linear-gradient-78" x1="40.22" y1="63.98" x2="46.47" y2="42.79" xlink:href="#linear-gradient-31"/><linearGradient id="linear-gradient-79" x1="38.33" y1="45.73" x2="38.33" y2="36.24" gradientTransform="translate(76.65 77.23) rotate(-180)" xlink:href="#linear-gradient-4"/><linearGradient id="linear-gradient-80" x1="39.13" y1="38.94" x2="39.13" y2="34.25" xlink:href="#linear-gradient-4"/><linearGradient id="linear-gradient-81" x1="47.34" y1="49.65" x2="47.34" y2="30.72" xlink:href="#linear-gradient-55"/><linearGradient id="linear-gradient-82" x1="43.94" y1="48.7" x2="42.52" y2="23.2" xlink:href="#linear-gradient-55"/><linearGradient id="linear-gradient-83" x1="49.41" y1="49.65" x2="49.41" y2="30.72" xlink:href="#linear-gradient-55"/><linearGradient id="linear-gradient-84" x1="45.28" y1="49.83" x2="48.11" y2="33.74" xlink:href="#linear-gradient-55"/></defs><title>photographer taking pictures</title><g class="cls-1"><g id="Layer_1" data-name="Layer 1"><circle class="cls-2" cx="32" cy="32" r="28"/><path class="cls-3" d="M21.87,48.72a.39.39,0,0,1-.39-.39V45.92a1,1,0,0,0-1-1H17.82a.5.5,0,0,1-.5-.5v-.83a1,1,0,0,0-1-1h-1.2a.5.5,0,0,1-.5-.5V36.92A5.94,5.94,0,0,0,8.63,31H7.78A1.75,1.75,0,0,0,6,32.74v9.72A28,28,0,0,0,27.45,59.63h9.1c.8-.13,1.6-.29,2.38-.49V48.72Zm-13-2.25a.53.53,0,1,1,.53-.53A.53.53,0,0,1,8.9,46.47Zm0-2.65a.53.53,0,1,1,.53-.53A.53.53,0,0,1,8.9,43.82Zm0-2.65a.53.53,0,1,1,.53-.53A.53.53,0,0,1,8.9,41.18Zm0-2.65A.53.53,0,1,1,9.43,38,.53.53,0,0,1,8.9,38.53Zm0-2.65a.53.53,0,1,1,.53-.53A.53.53,0,0,1,8.9,35.89Zm2.79,10.58a.53.53,0,1,1,.53-.53A.53.53,0,0,1,11.69,46.47Zm0-2.65a.53.53,0,1,1,.53-.53A.53.53,0,0,1,11.69,43.82Zm0-2.65a.53.53,0,1,1,.53-.53A.53.53,0,0,1,11.69,41.18Zm0-2.65a.53.53,0,1,1,.53-.53A.53.53,0,0,1,11.69,38.53Zm0-2.65a.53.53,0,1,1,.53-.53A.53.53,0,0,1,11.69,35.89Z"/><circle class="cls-4" cx="8.9" cy="35.35" r="0.53"/><circle class="cls-5" cx="8.9" cy="35.35" r="0.53"/><circle class="cls-6" cx="11.69" cy="35.35" r="0.53"/><circle class="cls-7" cx="11.69" cy="35.35" r="0.53"/><circle class="cls-8" cx="8.9" cy="38" r="0.53"/><circle class="cls-9" cx="8.9" cy="38" r="0.53"/><circle class="cls-10" cx="11.69" cy="38" r="0.53"/><circle class="cls-11" cx="11.69" cy="38" r="0.53"/><circle class="cls-12" cx="8.9" cy="40.65" r="0.53"/><circle class="cls-9" cx="8.9" cy="40.65" r="0.53"/><circle class="cls-13" cx="11.69" cy="40.65" r="0.53"/><circle class="cls-11" cx="11.69" cy="40.65" r="0.53"/><circle class="cls-14" cx="8.9" cy="43.29" r="0.53"/><circle class="cls-9" cx="8.9" cy="43.29" r="0.53"/><circle class="cls-15" cx="11.69" cy="43.29" r="0.53"/><circle class="cls-11" cx="11.69" cy="43.29" r="0.53"/><circle class="cls-16" cx="8.9" cy="45.94" r="0.53"/><circle class="cls-9" cx="8.9" cy="45.94" r="0.53"/><circle class="cls-17" cx="11.69" cy="45.94" r="0.53"/><circle class="cls-11" cx="11.69" cy="45.94" r="0.53"/><path class="cls-18" d="M19.43,9.59a2.49,2.49,0,0,1-2-2,2.46,2.46,0,0,1,.77-2.22.43.43,0,0,0-.35-.74A4.46,4.46,0,0,0,15.5,6a3.64,3.64,0,0,0-1.12,2.55,4,4,0,0,0,7.46,1.9,4.11,4.11,0,0,0,.4-1,.43.43,0,0,0-.7-.44A2.46,2.46,0,0,1,19.43,9.59Z"/><path class="cls-19" d="M18.92,12.46a4,4,0,0,0,2.92-2,4.11,4.11,0,0,0,.4-1,.43.43,0,0,0-.7-.44,2.46,2.46,0,0,1-2.11.62A2.5,2.5,0,0,1,17.55,8a28.05,28.05,0,0,0-2.86,2A4,4,0,0,0,18.92,12.46Z"/><path class="cls-20" d="M4,20.06A4,4,0,0,0,8,24h6.35a29.45,29.45,0,0,1-2.49-3.89,3.93,3.93,0,1,0-7.85,0Z"/><path class="cls-21" d="M17.95,17.65a5.29,5.29,0,0,0-5.26-4.27,5.51,5.51,0,0,0-5.21,5.21A5.29,5.29,0,0,0,12.76,24h5.17a2.75,2.75,0,0,0,2.71-2,2.72,2.72,0,0,0-1.72-3.13A1.53,1.53,0,0,1,17.95,17.65Z"/><path class="cls-22" d="M60,13.4a4,4,0,0,1-4,3.89H49.65a29.45,29.45,0,0,0,2.49-3.89,3.93,3.93,0,0,1,7.85,0Z"/><path class="cls-23" d="M46.05,11a5.29,5.29,0,0,1,5.26-4.27,5.51,5.51,0,0,1,5.21,5.21,5.29,5.29,0,0,1-5.29,5.36H46.07a2.75,2.75,0,0,1-2.71-2,2.72,2.72,0,0,1,1.72-3.13A1.53,1.53,0,0,0,46.05,11Z"/><path class="cls-24" d="M36.13,10.16A1.87,1.87,0,0,1,34.24,12h-3a13.9,13.9,0,0,0,1.18-1.84,1.85,1.85,0,0,1,3.71,0Z"/><path class="cls-25" d="M29.54,9A2.5,2.5,0,0,1,32,7a2.6,2.6,0,0,1,2.46,2.46A2.49,2.49,0,0,1,32,12H29.55a1.3,1.3,0,0,1-1.28-.94,1.28,1.28,0,0,1,.81-1.48A.72.72,0,0,0,29.54,9Z"/><path class="cls-26" d="M30.31,18.74l-.81-.92a1.9,1.9,0,0,0-.78-.53l-1-.37a.88.88,0,0,1-.38-.22l-.4-.4a.87.87,0,0,1-.24-.8,5,5,0,0,1,4.06-4.06,1.49,1.49,0,0,1,1.44.64l.55.79a.88.88,0,0,1,.14.36l0,.3a1.9,1.9,0,0,0,.51,1l2.19,2.28"/><path class="cls-27" d="M28.8,19.9l2.61-3.6A.7.7,0,0,1,32,16l7.39.72a.25.25,0,0,1,.15.44l-4.11,4-7-.33"/><path class="cls-28" d="M30,21.13l2.61-3.6a.7.7,0,0,1,.62-.29l5.91.47-1.67,3.14a2.71,2.71,0,0,1-2.52,1.44L29.68,22"/><path class="cls-29" d="M32.76,20l.42-.62A.9.9,0,0,1,34,19l.93.06a.56.56,0,0,1,.4.9l-.49.61a.9.9,0,0,1-.74.34l-.88,0A.56.56,0,0,1,32.76,20Z"/><path class="cls-30" d="M36.84,21.25S35,21.56,34.21,26s-.73,11.18,5.77,13S45.23,33,45.1,33"/><path class="cls-31" d="M38,19a2.63,2.63,0,0,0-1.3,1.57A17.42,17.42,0,0,1,35.33,24c-1.05,1.84-.74,3.94,1.27,4.09s6.93,0,8.09-3.61C45.74,21.22,41.39,17.26,38,19Z"/><path class="cls-32" d="M35.81,23,35,24.91c-.31.68-.28,1.54.81,1A2.3,2.3,0,0,0,36.9,24l.31.49s-.77,1.65-.87,2.09A1.19,1.19,0,0,0,36.92,28c.42.14-.44,1.1-.44,1.1l-1.75,3.08s-3.2-1.38-2.74-3.63S35.51,23.34,35.81,23Z"/><path class="cls-33" d="M40.66,17.27a3.19,3.19,0,0,0-4,1.94A4.29,4.29,0,0,0,36.52,22c.79,2.37,0,2.76.43,2.79s.35-1.23.91-1.21-.07,2.06-.75,2.22c-.32.08-1.26,2.22,1.45,2.68C41.49,29,41,30,42.09,29s5.75-5,1.7-9.07C42.44,18.64,41.63,17.59,40.66,17.27Z"/><path class="cls-34" d="M42.57,55.82l-1.36,0c0,.1,0,.19,0,.28,0,.81-.09,1.61-.18,2.42.66-.23,1.32-.47,2-.74,0-.12,0-.23-.05-.34C42.82,56.81,42.7,56.28,42.57,55.82Z"/><path class="cls-35" d="M42.57,55.82l-1.36,0c0,.1,0,.19,0,.28,0,.81-.09,1.61-.18,2.42.66-.23,1.32-.47,2-.74,0-.12,0-.23-.05-.34C42.82,56.81,42.7,56.28,42.57,55.82Z"/><path class="cls-36" d="M28.07,57.89c0,.54,0,1.15,0,1.83l.87.11A5.34,5.34,0,0,1,28.07,57.89Z"/><path class="cls-36" d="M41.2,55c0,.09,0,.18,0,.28C41.21,55.17,41.2,55.08,41.2,55Z"/><path class="cls-37" d="M41.19,54.84h0c0,.05,0,.1,0,.15S41.2,54.89,41.19,54.84Z"/><path class="cls-38" d="M41.19,54.84h0c0,.05,0,.1,0,.15S41.2,54.89,41.19,54.84Z"/><path class="cls-39" d="M41.21,55.8c0-.18,0-.36,0-.53,0,.17,0,.35,0,.53Z"/><path class="cls-40" d="M41.21,55.8c0-.18,0-.36,0-.53,0,.17,0,.35,0,.53Z"/><path class="cls-41" d="M28.08,57.3q0,.28,0,.59h0c0-.21,0-.41,0-.6Z"/><path class="cls-42" d="M28.08,57.3q0,.28,0,.59h0c0-.21,0-.41,0-.6Z"/><path class="cls-43" d="M41,58.5c.09-.8.16-1.61.18-2.42,0,.81-.09,1.61-.18,2.42Z"/><path class="cls-44" d="M41,58.5c.09-.8.16-1.61.18-2.42,0,.81-.09,1.61-.18,2.42Z"/><path class="cls-45" d="M41,58.5c.09-.8.16-1.61.18-2.42,0,.81-.09,1.61-.18,2.42Z"/><path class="cls-46" d="M41.21,56.08c0-.1,0-.19,0-.28h0C41.21,55.9,41.21,56,41.21,56.08Z"/><path class="cls-47" d="M41.21,56.08c0-.1,0-.19,0-.28h0C41.21,55.9,41.21,56,41.21,56.08Z"/><path class="cls-48" d="M41.21,56.08c0-.1,0-.19,0-.28h0C41.21,55.9,41.21,56,41.21,56.08Z"/><path class="cls-36" d="M32,60a28.05,28.05,0,0,0,6.46-.76l.66-3.47,2.1,0c0-.18,0-.36,0-.53s0-.19,0-.28,0-.1,0-.15L28.08,57.3c0,.19,0,.38,0,.6a5.34,5.34,0,0,0,.85,1.94A28.28,28.28,0,0,0,32,60Z"/><path class="cls-49" d="M32,60a28.05,28.05,0,0,0,6.46-.76l.66-3.47,2.1,0c0-.18,0-.36,0-.53s0-.19,0-.28,0-.1,0-.15L28.08,57.3c0,.19,0,.38,0,.6a5.34,5.34,0,0,0,.85,1.94A28.28,28.28,0,0,0,32,60Z"/><path class="cls-36" d="M39.11,55.77l-.66,3.47q1.31-.31,2.57-.74c.09-.8.16-1.61.18-2.42,0-.1,0-.19,0-.28Z"/><path class="cls-50" d="M39.11,55.77l-.66,3.47q1.31-.31,2.57-.74c.09-.8.16-1.61.18-2.42,0-.1,0-.19,0-.28Z"/><path class="cls-51" d="M34.89,31.21a3.46,3.46,0,0,1,3.77-3.59c3.85.14,5,.83,4.53,3,0,0,3.3,1.53,3.15,4.3S43,53.43,44.22,56.66s-6.31-.24-12.83,1.53-3.14-5.55-2.82-11.37S30.58,32.43,34.89,31.21Z"/><path class="cls-52" d="M33,57.86c6.09-.93,12.37,1.78,11.26-1.2-.69-1.87.08-7.9.88-13.2L35.29,33.4l-5.82,6.76h0s4-1.26,2.8,4-3.44,10.9-.6,11.84C33.83,56.74,33.39,57.6,33,57.86Z"/><path class="cls-53" d="M28.48,37.21S27,43.53,29.27,47.3a21.33,21.33,0,0,0,6,6.19v-3s-6.83-3.9-4.68-11.14"/><path class="cls-54" d="M32.64,57.91h0Z"/><path class="cls-55" d="M26.75,22.67S27.83,21,28.44,19.9a5,5,0,0,1,2.25-2c1.37-.54,2.08-.57,2.39-.27s.3.45-1.32,2.6c-.17.23,1.94-.15,1.35.75-.28.44-2.74,1.29-3.08,1.37"/><path class="cls-56" d="M36.29,31.22s-2.21-.55-6.32,1-5,1.43-3.13-2.52c1.65-3.53,2.73-4.68,3.52-6.9.47-1.32-1.22-3.74-4.13,0s-9.4,11.4-6.46,15.34S35.09,40,37,37.59C38.84,35.4,36.29,31.22,36.29,31.22Z"/><path class="cls-57" d="M34.21,37.31V33.45a1.92,1.92,0,0,0-2.48-1.84l-.07,0s3.42-2.43,5.49.56.48,4.09.48,4.09"/><rect class="cls-58" x="36.28" y="29.03" width="14.51" height="4.62" rx="1.9" ry="1.9" transform="translate(87.07 62.68) rotate(-180)"/><path class="cls-59" d="M47.4,31.75v-.82a1.91,1.91,0,0,0-1.9-1.9h1a1.91,1.91,0,0,1,1.9,1.9v.82a1.91,1.91,0,0,1-1.9,1.9h-1A1.91,1.91,0,0,0,47.4,31.75Z"/><path class="cls-60" d="M43.11,31.75v-.82a1.91,1.91,0,0,0-1.9-1.9h1a1.91,1.91,0,0,1,1.9,1.9v.82a1.91,1.91,0,0,1-1.9,1.9h-1A1.91,1.91,0,0,0,43.11,31.75Z"/><rect class="cls-61" x="36.28" y="29.03" width="4.38" height="4.62" rx="1.9" ry="1.9"/><rect class="cls-62" x="37.32" y="30.21" width="2.14" height="2.26" rx="0.93" ry="0.93"/><path class="cls-63" d="M42,33.89V29.55a1.89,1.89,0,0,1,1.89-1.89h3.49a1.89,1.89,0,0,1,1.89,1.89v4.34a.53.53,0,0,1-.53.53H42.51A.53.53,0,0,1,42,33.89Zm6.46-4.34a1.09,1.09,0,0,0-1.09-1.09H43.87a1.09,1.09,0,0,0-1.09,1.09v4.07h5.66Z"/><path class="cls-64" d="M52.65,42.51H49.83a2,2,0,0,0-2,2v9c0,.88,1.25,1.6,2.13,1.6h3.29l-.54-10.64C52.76,43.38,51.57,42.51,52.65,42.51Z"/><path class="cls-65" d="M52.77,53.15V44.46a2,2,0,0,0-2-2h2.72a2.06,2.06,0,0,1,2.06,2.06h0V53h0a2.06,2.06,0,0,1-2.06,2.06H51.35C52.43,55.1,52.77,54.23,52.77,53.15Z"/><path class="cls-66" d="M47.84,33.4h-10A3.61,3.61,0,0,0,34.21,37v16.7c0,1.63,2.31,3,3.94,3h6.08L43.23,37C43.23,35,45.84,33.4,47.84,33.4Z"/><path class="cls-67" d="M41,51.9v1.81a4.14,4.14,0,0,0,1.21,2.93l0,0H38.15a4.58,4.58,0,0,1-3.73-2.11Z"/><path class="cls-68" d="M43.25,53.05V37a3.61,3.61,0,0,0-3.61-3.61h10A3.61,3.61,0,0,1,53.27,37v16a3.61,3.61,0,0,1-3.61,3.61h-9C42.62,56.66,43.25,55,43.25,53.05Z"/><path class="cls-69" d="M44.15,54.92v-.34l9.12-3.13v1.6a3.61,3.61,0,0,1-3.61,3.61H45.45l-1-1A1.05,1.05,0,0,1,44.15,54.92Z"/><path class="cls-70" d="M54.16,37v2.39a.8.8,0,0,1-.8.8H44.94a.8.8,0,0,1-.8-.8V37a3.61,3.61,0,0,0-3.61-3.61h10A3.61,3.61,0,0,1,54.16,37Z"/><path class="cls-71" d="M41.62,33.4A3.61,3.61,0,0,1,45.23,37v2.39a.8.8,0,0,0,.8.8H44.94a.8.8,0,0,1-.8-.8V37a3.61,3.61,0,0,0-3.61-3.61Z"/><path class="cls-72" d="M38.06,42.51H35.24a2,2,0,0,0-2,2v9c0,.88,1.25,1.6,2.13,1.6h3.29l-.54-10.64C38.17,43.38,37,42.51,38.06,42.51Z"/><path class="cls-73" d="M38.18,53.15V44.46a2,2,0,0,0-2-2h2.71A2.06,2.06,0,0,1,41,44.57h0V53h0a2.06,2.06,0,0,1-2.06,2.06H36.76C37.84,55.1,38.18,54.23,38.18,53.15Z"/><rect class="cls-74" x="34.02" y="47.34" width="3.27" height="0.35" rx="0.14" ry="0.14" transform="translate(71.31 95.02) rotate(180)"/><rect class="cls-75" x="34.02" y="47.44" width="0.51" height="0.77" rx="0.12" ry="0.12" transform="translate(68.54 95.64) rotate(180)"/><path class="cls-76" d="M46.28,41.62H54a.14.14,0,0,1,.14.14V55a.14.14,0,0,1-.14.14H46.08a1.93,1.93,0,0,1-1.93-1.93V43.75A2.14,2.14,0,0,1,46.28,41.62Z" transform="translate(98.3 96.72) rotate(180)"/><path class="cls-77" d="M46,42.56V53a2.14,2.14,0,0,1-1.81,2.11.14.14,0,0,1-.06-.11V41.76a.14.14,0,0,1,.14-.14h.78A1,1,0,0,1,46,42.56Z"/><rect class="cls-78" x="36.81" y="37.63" width="3.03" height="1.97" rx="0.1" ry="0.1" transform="translate(76.65 77.23) rotate(180)"/><path class="cls-79" d="M39.74,37.63a.1.1,0,0,1,.1.1v.89H38.53a.1.1,0,0,1-.1-.1v-.89Z"/><path class="cls-80" d="M54.16,37v2.39a.8.8,0,0,1-.8.8H44.94a.8.8,0,0,1-.8-.8V37a3.61,3.61,0,0,0-3.61-3.61h10A3.61,3.61,0,0,1,54.16,37Z"/><path class="cls-81" d="M41.62,33.4A3.61,3.61,0,0,1,45.23,37v2.39a.8.8,0,0,0,.8.8H44.94a.8.8,0,0,1-.8-.8V37a3.61,3.61,0,0,0-3.61-3.61Z"/><path class="cls-82" d="M54.68,44.35V46.2a.62.62,0,0,1-.62.62H47.56a.62.62,0,0,1-.62-.62V44.35a2.79,2.79,0,0,0-2.79-2.79h7.74A2.79,2.79,0,0,1,54.68,44.35Z"/><path class="cls-83" d="M45,41.56a2.79,2.79,0,0,1,2.79,2.79V46.2a.62.62,0,0,0,.62.62h-.85a.62.62,0,0,1-.62-.62V44.35a2.79,2.79,0,0,0-2.79-2.79Z"/><rect class="cls-84" x="46.87" y="48.36" width="6.3" height="0.44" rx="0.22" ry="0.22" transform="translate(100.03 97.15) rotate(180)"/><rect class="cls-84" x="46.87" y="50.12" width="6.3" height="0.44" rx="0.22" ry="0.22" transform="translate(100.03 100.68) rotate(-180)"/><rect class="cls-84" x="46.87" y="51.89" width="6.3" height="0.44" rx="0.22" ry="0.22" transform="translate(100.03 104.21) rotate(-180)"/></g></g></svg>