<?xml version="1.0" encoding="utf-8"?>
<!-- Generator: Adobe Illustrator 24.0.1, SVG Export Plug-In . SVG Version: 6.00 Build 0)  -->
<svg version="1.1" id="Layer_1" xmlns="http://www.w3.org/2000/svg" xmlns:xlink="http://www.w3.org/1999/xlink" x="0px" y="0px"
	 viewBox="0 0 960 560" style="enable-background:new 0 0 960 560;" xml:space="preserve">
<style type="text/css">
	.st0{fill:#060C11;}
	.st1{fill:#BA111D;}
</style>
<path class="st0" d="M458.45,301.56c6.61,0,12.26-2.58,15.48-6.13l19.35,11.13c-7.9,10.97-19.84,16.61-35.16,16.61
	c-27.58,0-44.67-18.55-44.67-42.58c0-24.03,17.42-42.58,42.9-42.58c23.54,0,40.96,18.22,40.96,42.58c0,3.39-0.32,6.61-0.97,9.68
	H439.1C442.16,298.66,449.58,301.56,458.45,301.56z M473.29,272.21c-2.58-9.35-9.84-12.74-17.09-12.74
	c-9.19,0-15.32,4.52-17.58,12.74H473.29z"/>
<path class="st1" d="M636.93,301.56c6.61,0,12.26-2.58,15.48-6.13l19.35,11.13c-7.9,10.97-19.84,16.61-35.16,16.61
	c-27.58,0-44.67-18.55-44.67-42.58c0-24.03,17.42-42.58,42.9-42.58c23.54,0,40.96,18.22,40.96,42.58c0,3.39-0.32,6.61-0.97,9.68
	h-57.25C620.64,298.66,628.06,301.56,636.93,301.56z M651.77,272.21c-2.58-9.35-9.84-12.74-17.09-12.74
	c-9.19,0-15.32,4.52-17.58,12.74H651.77z"/>
<path class="st1" d="M711.27,263.5v28.54c0,6.93,5.97,7.58,16.61,6.93v21.93c-31.61,3.23-40.8-6.29-40.8-28.87V263.5h-8.42v-23.22
	h8.42v-15.32l24.19-7.26v22.58h16.61v23.22H711.27z"/>
<path class="st0" d="M425.43,241.25c0.38-0.18,0.34-0.67-0.03-0.86c-4.48-2.36-10.36-1.8-10.36-1.8
	c-12.27,1.51-20.93,5.23-24.16,16.05v-14.36H366.7v80.63h24.19v-36.44c0-13.1,8.73-18.32,17.63-18.83c0.54-0.03,0.98-0.4,1.08-0.93
	C411.56,255.09,416.6,245.6,425.43,241.25z"/>
<path class="st1" d="M550.18,238.02c-10.8,0-18.71,3.71-24.03,9.84v-42.07h-24.19v115.13h24.19v-7.58
	c5.32,6.13,13.23,9.84,24.03,9.84c21.13,0,38.54-18.55,38.54-42.58S571.31,238.02,550.18,238.02z M571.67,283.06
	c0,20.38-16.13,25.85-28.15,25.85c-12.01,0-21.3-9.09-21.3-19.56c0-10.47,5.52-14.89,5.52-14.89c1.25,12.6,8.02,11.7,8.02,11.7
	c-7.48-11.86-1.69-21.59-1.69-21.59c7.93-12.92,23.87-13.74,23.87-13.74c-13.98,18.08,1.87,25.47,1.87,25.47
	c5.28-4.85,1.96-15.24,1.96-15.24C572.29,270.38,571.67,283.06,571.67,283.06z"/>
<path class="st0" d="M364.29,240.28l-27.57,78.21c-9.05,25.64-23.4,35.81-45.98,34.67v0.09h-48.17v-22.67h48.17
	c11.29,0,16.62-3.54,20.16-13.37l-22.4-53.71h-21.46v57.4h-24.19v-57.4h-10.8v-23.23h10.8c0-22.58,12.43-36.13,39.19-34.51v23.23
	c-9.03-0.81-15.01,1.93-15.01,11.29h38.39l17.89,49.34l15.16-49.34H364.29z"/>
<g>
	<path d="M369.87,352.86l-3.17-13.35h3.23l1.01,5.51c0.3,1.58,0.57,3.31,0.79,4.65h0.04c0.22-1.45,0.53-3.05,0.87-4.7l1.13-5.47
		h3.21l1.07,5.63c0.3,1.56,0.52,2.99,0.71,4.48h0.04c0.2-1.48,0.5-3.05,0.77-4.64l1.09-5.47h3.07l-3.45,13.35h-3.27l-1.13-5.74
		c-0.26-1.35-0.48-2.6-0.63-4.12h-0.04c-0.24,1.51-0.46,2.77-0.77,4.12l-1.27,5.74H369.87z"/>
	<path d="M389.91,339.51v13.35h-3.03v-13.35H389.91z"/>
	<path d="M394.11,352.86v-13.35h3.53l2.77,4.89c0.79,1.41,1.58,3.07,2.18,4.57h0.06c-0.2-1.76-0.26-3.56-0.26-5.57v-3.9h2.77v13.35
		H402l-2.85-5.15c-0.79-1.42-1.66-3.15-2.32-4.71l-0.06,0.02c0.08,1.76,0.12,3.64,0.12,5.82v4.02H394.11z"/>
	<path d="M427.17,346.05c0,4.38-2.65,7.03-6.56,7.03c-3.96,0-6.28-2.99-6.28-6.79c0-4,2.56-6.99,6.5-6.99
		C424.93,339.3,427.17,342.37,427.17,346.05z M417.52,346.23c0,2.62,1.23,4.46,3.25,4.46c2.04,0,3.21-1.94,3.21-4.54
		c0-2.4-1.15-4.46-3.23-4.46C418.71,341.69,417.52,343.63,417.52,346.23z"/>
	<path d="M430.73,339.69c0.97-0.16,2.42-0.28,4.02-0.28c1.98,0,3.37,0.3,4.32,1.05c0.79,0.63,1.23,1.57,1.23,2.79
		c0,1.7-1.21,2.87-2.36,3.29v0.06c0.93,0.38,1.45,1.27,1.78,2.5c0.42,1.5,0.83,3.25,1.09,3.76h-3.09c-0.22-0.38-0.54-1.47-0.93-3.11
		c-0.36-1.66-0.93-2.12-2.16-2.14h-0.91v5.25h-2.99V339.69z M433.72,345.44h1.19c1.51,0,2.4-0.75,2.4-1.92
		c0-1.23-0.83-1.84-2.22-1.86c-0.73,0-1.15,0.06-1.37,0.1V345.44z"/>
	<path d="M449.64,339.51h3.03v10.82h5.31v2.54h-8.34V339.51z"/>
	<path d="M472.81,346.05c0,4.38-2.65,7.03-6.56,7.03c-3.96,0-6.28-2.99-6.28-6.79c0-4,2.56-6.99,6.5-6.99
		C470.58,339.3,472.81,342.37,472.81,346.05z M463.17,346.23c0,2.62,1.23,4.46,3.25,4.46c2.04,0,3.21-1.94,3.21-4.54
		c0-2.4-1.15-4.46-3.23-4.46C464.36,341.69,463.17,343.63,463.17,346.23z"/>
	<path d="M476.47,349.76c0.81,0.41,2.06,0.83,3.35,0.83c1.39,0,2.12-0.57,2.12-1.45c0-0.83-0.63-1.31-2.24-1.88
		c-2.22-0.77-3.66-2-3.66-3.94c0-2.28,1.9-4.02,5.05-4.02c1.5,0,2.61,0.32,3.41,0.67l-0.67,2.44c-0.54-0.26-1.49-0.63-2.79-0.63
		c-1.31,0-1.94,0.59-1.94,1.29c0,0.85,0.75,1.23,2.48,1.88c2.36,0.87,3.47,2.1,3.47,3.98c0,2.24-1.72,4.14-5.39,4.14
		c-1.53,0-3.03-0.4-3.78-0.81L476.47,349.76z"/>
	<path d="M496.6,347.22h-4.91v3.17h5.49v2.48h-8.52v-13.35h8.24v2.48h-5.21v2.77h4.91V347.22z"/>
	<path d="M499.39,355.22c0.61-1.76,1.15-3.82,1.43-5.63l3.07-0.2c-0.65,2.02-1.55,4.1-2.49,5.64L499.39,355.22z"/>
	<path d="M522.78,352.49c-0.55,0.28-1.8,0.57-3.43,0.57c-4.62,0-6.99-2.87-6.99-6.67c0-4.56,3.25-7.09,7.29-7.09
		c1.56,0,2.75,0.32,3.29,0.6l-0.61,2.4c-0.61-0.26-1.47-0.49-2.54-0.49c-2.4,0-4.26,1.45-4.26,4.42c0,2.67,1.58,4.36,4.28,4.36
		c0.91,0,1.92-0.2,2.52-0.44L522.78,352.49z"/>
	<path d="M526.34,339.69c0.97-0.16,2.42-0.28,4.02-0.28c1.98,0,3.37,0.3,4.32,1.05c0.79,0.63,1.23,1.57,1.23,2.79
		c0,1.7-1.21,2.87-2.36,3.29v0.06c0.93,0.38,1.45,1.27,1.78,2.5c0.41,1.5,0.83,3.25,1.09,3.76h-3.09c-0.22-0.38-0.54-1.47-0.93-3.11
		c-0.36-1.66-0.93-2.12-2.16-2.14h-0.91v5.25h-2.99V339.69z M529.33,345.44h1.19c1.5,0,2.4-0.75,2.4-1.92
		c0-1.23-0.83-1.84-2.22-1.86c-0.73,0-1.15,0.06-1.37,0.1V345.44z"/>
	<path d="M542.38,352.86v-5.47l-4.22-7.88h3.45l1.37,3.21c0.42,0.97,0.69,1.68,1.03,2.55h0.04c0.3-0.83,0.61-1.6,1.01-2.55
		l1.35-3.21h3.39l-4.4,7.79v5.57H542.38z"/>
	<path d="M552.46,339.69c0.93-0.16,2.24-0.28,4.08-0.28c1.86,0,3.19,0.36,4.08,1.07c0.85,0.67,1.42,1.78,1.42,3.09
		c0,1.31-0.44,2.42-1.23,3.17c-1.03,0.97-2.55,1.41-4.34,1.41c-0.4,0-0.75-0.02-1.03-0.06v4.77h-2.99V339.69z M555.45,345.75
		c0.26,0.06,0.58,0.08,1.01,0.08c1.6,0,2.59-0.81,2.59-2.18c0-1.23-0.85-1.96-2.36-1.96c-0.61,0-1.03,0.06-1.25,0.12V345.75z"/>
	<path d="M568.12,342.05h-3.59v-2.54h10.26v2.54h-3.65v10.82h-3.03V342.05z"/>
	<path d="M589.63,346.05c0,4.38-2.65,7.03-6.56,7.03c-3.96,0-6.28-2.99-6.28-6.79c0-4,2.55-6.99,6.5-6.99
		C587.4,339.3,589.63,342.37,589.63,346.05z M579.99,346.23c0,2.62,1.23,4.46,3.25,4.46c2.04,0,3.21-1.94,3.21-4.54
		c0-2.4-1.15-4.46-3.23-4.46C581.18,341.69,579.99,343.63,579.99,346.23z"/>
	<path d="M601.08,352.86v-5.47l-4.22-7.88h3.45l1.37,3.21c0.42,0.97,0.69,1.68,1.03,2.55h0.04c0.3-0.83,0.61-1.6,1.01-2.55
		l1.35-3.21h3.39l-4.4,7.79v5.57H601.08z"/>
	<path d="M622.8,346.05c0,4.38-2.65,7.03-6.56,7.03c-3.96,0-6.28-2.99-6.28-6.79c0-4,2.55-6.99,6.5-6.99
		C620.57,339.3,622.8,342.37,622.8,346.05z M613.16,346.23c0,2.62,1.23,4.46,3.25,4.46c2.04,0,3.21-1.94,3.21-4.54
		c0-2.4-1.15-4.46-3.23-4.46C614.35,341.69,613.16,343.63,613.16,346.23z"/>
	<path d="M629.38,339.51v7.69c0,2.3,0.87,3.47,2.42,3.47c1.59,0,2.46-1.11,2.46-3.47v-7.69h3.01V347c0,4.12-2.08,6.08-5.57,6.08
		c-3.37,0-5.35-1.86-5.35-6.12v-7.45H629.38z"/>
	<path d="M656.85,352.49c-0.55,0.28-1.8,0.57-3.43,0.57c-4.62,0-6.99-2.87-6.99-6.67c0-4.56,3.25-7.09,7.29-7.09
		c1.56,0,2.75,0.32,3.29,0.6l-0.61,2.4c-0.61-0.26-1.47-0.49-2.54-0.49c-2.4,0-4.26,1.45-4.26,4.42c0,2.67,1.58,4.36,4.28,4.36
		c0.91,0,1.92-0.2,2.52-0.44L656.85,352.49z"/>
	<path d="M663.44,339.51v5.13h4.97v-5.13h3.01v13.35h-3.01v-5.58h-4.97v5.58h-3.03v-13.35H663.44z"/>
	<path d="M687.86,346.05c0,4.38-2.65,7.03-6.56,7.03c-3.96,0-6.28-2.99-6.28-6.79c0-4,2.55-6.99,6.5-6.99
		C685.62,339.3,687.86,342.37,687.86,346.05z M678.21,346.23c0,2.62,1.23,4.46,3.25,4.46c2.04,0,3.21-1.94,3.21-4.54
		c0-2.4-1.15-4.46-3.23-4.46C679.4,341.69,678.21,343.63,678.21,346.23z"/>
	<path d="M703.64,346.05c0,4.38-2.65,7.03-6.56,7.03c-3.96,0-6.28-2.99-6.28-6.79c0-4,2.55-6.99,6.5-6.99
		C701.41,339.3,703.64,342.37,703.64,346.05z M694,346.23c0,2.62,1.23,4.46,3.25,4.46c2.04,0,3.21-1.94,3.21-4.54
		c0-2.4-1.15-4.46-3.23-4.46C695.19,341.69,694,343.63,694,346.23z"/>
	<path d="M707.3,349.76c0.81,0.41,2.06,0.83,3.35,0.83c1.39,0,2.12-0.57,2.12-1.45c0-0.83-0.63-1.31-2.24-1.88
		c-2.22-0.77-3.66-2-3.66-3.94c0-2.28,1.9-4.02,5.05-4.02c1.51,0,2.62,0.32,3.41,0.67l-0.67,2.44c-0.54-0.26-1.49-0.63-2.79-0.63
		c-1.31,0-1.94,0.59-1.94,1.29c0,0.85,0.75,1.23,2.48,1.88c2.36,0.87,3.47,2.1,3.47,3.98c0,2.24-1.72,4.14-5.39,4.14
		c-1.53,0-3.03-0.4-3.78-0.81L707.3,349.76z"/>
	<path d="M727.43,347.22h-4.91v3.17H728v2.48h-8.52v-13.35h8.24v2.48h-5.21v2.77h4.91V347.22z"/>
</g>
</svg>
